# xmcd CD database file
#
# Track frame offsets:
#	187
#	20787
#	37922
#	56605
#	73077
#	90630
#	109102
#	131565
#	148977
#	172817
#	190535
#	205482
#	227387
#	263030
#
# Disc length: 3801 seconds
#
# Revision: 0
# Processed by: cddbd v1.5.1PL0 Copyright (c) Steve Scherf et al.
# Submitted via: CDex 1.51
#
DISCID=c10ed70e
DTITLE=Various Artist - Chicago's Pride
DYEAR=1988
DGENRE=Blues
TTITLE0=Social Act - World War III
TTITLE1=Price Of Priesthood - Party In The Tarpits
TTITLE2=Da Springer - I'd Never Lie To You
TTITLE3=The Service - Mr. Responsible
TTITLE4=Treatment - No Sign Of Life
TTITLE5=Security - Each And Every Day
TTITLE6=Love And Addiction - Black Ice
TTITLE7=Nicholas Tremulis - High Number
TTITLE8=The Way Moves - So Far Away
TTITLE9=Dick Holliday And The Bamboo Gang - Such A Fine Love
TTITLE10=Material Issue - Renee Remains The Same
TTITLE11=Elventh Dream Day - Go
TTITLE12=Dion Payton and The 43rd Street Blues Band - All Your Affections Gone
TTITLE13=Chicago's Pride - Sweet Home Chicago
EXTD=YEAR: 1988
EXTT0=
EXTT1=
EXTT2=
EXTT3=
EXTT4=
EXTT5=
EXTT6=
EXTT7=
EXTT8=
EXTT9=
EXTT10=
EXTT11=
EXTT12=
EXTT13=
PLAYORDER=
